<?xml version="1.0" encoding="UTF-8" standalone="no"?>
<!DOCTYPE svg PUBLIC "-//W3C//DTD SVG 1.1//EN" "http://www.w3.org/Graphics/SVG/1.1/DTD/svg11.dtd">
<!-- Generado por Microsoft Visio, SVG Export logo.svg Página-1 -->
<svg xmlns="http://www.w3.org/2000/svg" xmlns:xlink="http://www.w3.org/1999/xlink" xmlns:ev="http://www.w3.org/2001/xml-events"
		xmlns:v="http://schemas.microsoft.com/visio/2003/SVGExtensions/" width="2.55668in" height="2.64172in"
		viewBox="0 0 184.081 190.204" xml:space="preserve" color-interpolation-filters="sRGB" class="st5">
	<v:documentProperties v:langID="3082" v:metric="true" v:viewMarkup="false"/>

	<style type="text/css">
	<![CDATA[
		.st1 {fill:#ffffff;stroke:#000000;stroke-linecap:round;stroke-linejoin:round;stroke-width:4.5}
		.st2 {fill:#000000;stroke:none;stroke-linecap:round;stroke-linejoin:round;stroke-width:6.375}
		.st3 {fill:#ffffff;stroke:#000000;stroke-linecap:round;stroke-linejoin:round;stroke-width:6}
		.st4 {fill:#000000}
		.st5 {fill:none;fill-rule:evenodd;font-size:12px;overflow:visible;stroke-linecap:square;stroke-miterlimit:3}
	]]>
	</style>

	<g v:mID="0" v:index="1" v:groupContext="foregroundPage">
		<title>Página-1</title>
		<v:pageProperties v:drawingScale="0.0393701" v:pageScale="0.0393701" v:drawingUnits="24" v:shadowOffsetX="8.50394"
				v:shadowOffsetY="-8.50394"/>
		<v:layer v:name="Diagrama de flujo" v:index="0"/>
		<g id="shape30-1" v:mID="30" v:groupContext="shape" transform="translate(185.849,1.83646) rotate(50)">
			<title>Franja diagonal.30</title>
			<v:userDefs>
				<v:ud v:nameU="visVersion" v:prompt="" v:val="VT0(15):26"/>
			</v:userDefs>
			<path d="M0 190.2 L69.51 124.57 L61.52 124.57 L0 182.66 L0 190.2 Z" class="st1"/>
		</g>
		<g id="shape29-3" v:mID="29" v:groupContext="shape" transform="translate(-32.3403,44.5761) rotate(-75)">
			<title>Franja diagonal.29</title>
			<v:userDefs>
				<v:ud v:nameU="visVersion" v:prompt="" v:val="VT0(15):26"/>
			</v:userDefs>
			<path d="M0 190.2 L51.7 141.4 L41.36 141.4 L0 180.44 L0 190.2 Z" class="st1"/>
		</g>
		<g id="shape28-5" v:mID="28" v:groupContext="shape" transform="translate(80.7314,218.527) rotate(180)">
			<title>Franja diagonal</title>
			<v:userDefs>
				<v:ud v:nameU="visVersion" v:prompt="" v:val="VT0(15):26"/>
			</v:userDefs>
			<path d="M0 190.2 L51.7 141.4 L41.36 141.4 L0 180.44 L0 190.2 Z" class="st1"/>
		</g>
		<g id="group7-7" transform="translate(3.1875,-64.9337)" v:mID="7" v:groupContext="group">
			<title>Libro abierto</title>
			<g id="shape8-8" v:mID="8" v:groupContext="shape">
				<title>Hoja.8</title>
				<path d="M61.82 144.44 L66.34 144.44 L66.34 187.88 L39.96 187.88 C39.96 189.2 38.98 190.2 37.69 190.2 L28.65 190.2
							 C27.37 190.2 26.39 189.2 26.39 187.88 L0 187.88 L0 144.44 L4.52 144.44 L4.52 182.45 L61.82 182.45 L61.82
							 144.44 Z" class="st2"/>
			</g>
			<g id="shape9-10" v:mID="9" v:groupContext="shape" transform="translate(7.53899,-10.8599)">
				<title>Hoja.9</title>
				<path d="M46.74 185.55 L46.74 155.3 L27.14 155.3 L27.14 185.55 L46.74 185.55 ZM4.52 155.3 L4.52 185.55 L24.12 185.55
							 L24.12 155.3 L4.52 155.3 ZM51.27 150.64 L51.27 190.2 L0 190.2 L0 150.64 L51.27 150.64 Z" class="st2"/>
			</g>
			<g id="shape10-12" v:mID="10" v:groupContext="shape" transform="translate(39.2027,-35.6824)">
				<title>Hoja.10</title>
				<rect x="0" y="187.877" width="10.5546" height="2.32711" class="st2"/>
			</g>
			<g id="shape11-14" v:mID="11" v:groupContext="shape" transform="translate(39.2027,-31.0281)">
				<title>Hoja.11</title>
				<rect x="0" y="187.877" width="10.5546" height="2.32711" class="st2"/>
			</g>
			<g id="shape12-16" v:mID="12" v:groupContext="shape" transform="translate(39.2027,-26.3739)">
				<title>Hoja.12</title>
				<rect x="0" y="187.877" width="7.31282" height="2.32711" class="st2"/>
			</g>
		</g>
		<g id="group13-18" transform="translate(127.258,-49.873)" v:mID="13" v:groupContext="group" v:layerMember="0">
			<v:userDefs>
				<v:ud v:nameU="visVersion" v:prompt="" v:val="VT0(15):26"/>
				<v:ud v:nameU="ConnGap" v:prompt="" v:val="VT0(0.00012908222537757):24"/>
			</v:userDefs>
			<title>Publicaciones</title>
			<g id="shape14-19" v:mID="14" v:groupContext="shape" v:layerMember="0" transform="translate(2.58268,-6.16361)">
				<title>Hoja.14</title>
				<path d="M2.53 187.98 C2.53 187.53 2.9 187.17 3.34 187.17 L20.26 187.17 L31.02 187.17 L31.02 185.76 L1.18 185.76
							 L1.18 151.95 L0.07 151.95 L0.07 151.97 L0 151.97 C0 151.97 0 189.11 0 189.12 C0 189.71 0.4 190.2 1.07
							 190.2 L29.98 190.2 L29.98 188.8 L3.34 188.8 C2.9 188.8 2.53 188.43 2.53 187.98 Z" class="st3"/>
			</g>
			<g id="shape15-21" v:mID="15" v:groupContext="shape" v:layerMember="0">
				<title>Hoja.15</title>
				<path d="M2.53 187.98 C2.53 187.53 2.9 187.17 3.34 187.17 L20.26 187.17 L31.03 187.17 L31.03 185.76 L1.18 185.76
							 L1.18 151.95 L0.07 151.95 L0.07 151.97 L0 151.97 L0 189.12 C0 189.71 0.4 190.2 1.07 190.2 L29.98 190.2
							 L29.98 188.8 L3.34 188.8 C2.9 188.8 2.53 188.43 2.53 187.98 ZM8.51 175.16 L25.42 175.16 L36.19 175.17
							 L36.19 139.94 L5.24 139.94 L5.24 139.96 L5.16 139.96 L5.17 177.11 C5.17 177.7 5.56 178.2 6.23 178.2
							 L35.15 178.2 L35.15 176.79 L8.51 176.79 C8.06 176.79 7.7 176.42 7.7 175.97 C7.7 175.52 8.06 175.16 8.51
							 175.16 Z" class="st3"/>
			</g>
			<g id="shape16-23" v:mID="16" v:groupContext="shape" v:layerMember="0" transform="translate(13.2378,-35.5827)">
				<title>Hoja.16</title>
				<v:userDefs>
					<v:ud v:nameU="SurroundingRegionColor" v:prompt="" v:val="VT0(1):26"/>
				</v:userDefs>
				<path d="M-0 184.81 L17.49 184.81 L17.49 183.4 L-0 183.4 L-0 184.81 ZM-0 190.2 L10.68 190.2 L10.68 188.8 L-0 188.8
							 L-0 190.2 Z" class="st4"/>
			</g>
		</g>
		<g id="shape17-26" v:mID="17" v:groupContext="shape" transform="translate(-3.5254,-107.145) rotate(-30)">
			<title>Círculo</title>
			<v:userDefs>
				<v:ud v:nameU="visVersion" v:val="VT0(15):26"/>
			</v:userDefs>
			<path d="M0 169.13 A21.0746 21.0746 0 0 1 42.15 169.13 A21.0746 21.0746 0 1 1 0 169.13 Z" class="st3"/>
		</g>
	</g>
</svg>
