<?xml version="1.0" encoding="UTF-8" standalone="no"?>
<!DOCTYPE svg PUBLIC "-//W3C//DTD SVG 1.1//EN" "http://www.w3.org/Graphics/SVG/1.1/DTD/svg11.dtd">
<!-- Generado por Microsoft Visio, SVG Export logo.svg Page-1 -->
<svg xmlns="http://www.w3.org/2000/svg" xmlns:xlink="http://www.w3.org/1999/xlink" xmlns:ev="http://www.w3.org/2001/xml-events"
		xmlns:v="http://schemas.microsoft.com/visio/2003/SVGExtensions/" width="2.14036in" height="2.18098in"
		viewBox="0 0 154.106 157.03" xml:space="preserve" color-interpolation-filters="sRGB" class="st5">
	<v:documentProperties v:langID="3082" v:metric="true" v:viewMarkup="false">
		<v:userDefs>
			<v:ud v:nameU="msvNoAutoConnect" v:val="VT0(1):26"/>
		</v:userDefs>
	</v:documentProperties>

	<style type="text/css">
	<![CDATA[
		.st1 {fill:#ffffff;stroke:#000000;stroke-linecap:round;stroke-linejoin:round;stroke-width:4.5}
		.st2 {fill:#000000;stroke:none;stroke-linecap:round;stroke-linejoin:round;stroke-width:6.375}
		.st3 {fill:#ffffff;stroke:#000000;stroke-linecap:round;stroke-linejoin:round;stroke-width:6}
		.st4 {fill:#000000}
		.st5 {fill:none;fill-rule:evenodd;font-size:12px;overflow:visible;stroke-linecap:square;stroke-miterlimit:3}
	]]>
	</style>

	<g v:mID="0" v:index="1" v:groupContext="foregroundPage">
		<title>Página-1</title>
		<v:pageProperties v:drawingScale="0.0393701" v:pageScale="0.0393701" v:drawingUnits="24" v:shadowOffsetX="8.50394"
				v:shadowOffsetY="-8.50394"/>
		<v:layer v:name="Diagrama de flujo" v:index="0"/>
		<g id="shape30-1" v:mID="30" v:groupContext="shape" transform="translate(163.346,-6.26989) rotate(50)">
			<title>Franja diagonal.30</title>
			<v:userDefs>
				<v:ud v:nameU="visVersion" v:prompt="" v:val="VT0(15):26"/>
			</v:userDefs>
			<path d="M0 157.03 L41.13 118.2 L36.4 118.2 L0 152.56 L0 157.03 Z" class="st1"/>
		</g>
		<g id="shape29-3" v:mID="29" v:groupContext="shape" transform="translate(-42.8087,36.1014) rotate(-75)">
			<title>Franja diagonal.29</title>
			<v:userDefs>
				<v:ud v:nameU="visVersion" v:prompt="" v:val="VT0(15):26"/>
			</v:userDefs>
			<path d="M0 157.03 L30.59 128.15 L24.47 128.15 L0 151.25 L0 157.03 Z" class="st1"/>
		</g>
		<g id="shape28-5" v:mID="28" v:groupContext="shape" transform="translate(67.0683,195.03) rotate(180)">
			<title>Franja diagonal</title>
			<v:userDefs>
				<v:ud v:nameU="visVersion" v:prompt="" v:val="VT0(15):26"/>
			</v:userDefs>
			<path d="M0 157.03 L30.59 128.15 L24.47 128.15 L0 151.25 L0 157.03 Z" class="st1"/>
		</g>
		<g id="group7-7" transform="translate(21.1875,-61.669)" v:mID="7" v:groupContext="group">
			<title>Libro abierto</title>
			<g id="shape8-8" v:mID="8" v:groupContext="shape">
				<title>Hoja.8</title>
				<path d="M36.58 129.95 L39.25 129.95 L39.25 155.65 L23.64 155.65 C23.64 156.43 23.06 157.03 22.3 157.03 L16.95 157.03
							 C16.19 157.03 15.61 156.43 15.61 155.65 L0 155.65 L0 129.95 L2.68 129.95 L2.68 152.44 L36.58 152.44
							 L36.58 129.95 Z" class="st2"/>
			</g>
			<g id="shape9-10" v:mID="9" v:groupContext="shape" transform="translate(4.46064,-6.42551)">
				<title>Hoja.9</title>
				<path d="M27.66 154.28 L27.66 136.38 L16.06 136.38 L16.06 154.28 L27.66 154.28 ZM2.68 136.38 L2.68 154.28 L14.27
							 154.28 L14.27 136.38 L2.68 136.38 ZM30.33 133.62 L30.33 157.03 L0 157.03 L0 133.62 L30.33 133.62 Z"
						class="st2"/>
			</g>
			<g id="shape10-12" v:mID="10" v:groupContext="shape" transform="translate(23.1953,-21.1124)">
				<title>Hoja.10</title>
				<rect x="0" y="155.653" width="6.24489" height="1.3769" class="st2"/>
			</g>
			<g id="shape11-14" v:mID="11" v:groupContext="shape" transform="translate(23.1953,-18.3586)">
				<title>Hoja.11</title>
				<rect x="0" y="155.653" width="6.24489" height="1.3769" class="st2"/>
			</g>
			<g id="shape12-16" v:mID="12" v:groupContext="shape" transform="translate(23.1953,-15.6048)">
				<title>Hoja.12</title>
				<rect x="0" y="155.653" width="4.32682" height="1.3769" class="st2"/>
			</g>
		</g>
		<g id="group13-18" transform="translate(94.5968,-52.758)" v:mID="13" v:groupContext="group" v:layerMember="0">
			<v:userDefs>
				<v:ud v:nameU="visVersion" v:prompt="" v:val="VT0(15):26"/>
				<v:ud v:nameU="ConnGap" v:prompt="" v:val="VT0(0.00012908222537757):24"/>
			</v:userDefs>
			<title>Publicaciones</title>
			<g id="shape14-19" v:mID="14" v:groupContext="shape" v:layerMember="0" transform="translate(1.52811,-3.64686)">
				<title>Hoja.14</title>
				<path d="M1.5 155.71 C1.5 155.45 1.71 155.23 1.98 155.23 L11.99 155.23 L18.36 155.24 L18.36 154.4 L0.7 154.4 L0.7
							 134.4 L0.04 134.4 L0.04 134.41 L0 134.41 C0 134.41 0 156.39 0 156.39 C0 156.74 0.23 157.03 0.63 157.03
							 L17.74 157.03 L17.74 156.2 L1.98 156.2 C1.71 156.2 1.5 155.98 1.5 155.71 Z" class="st3"/>
			</g>
			<g id="shape15-21" v:mID="15" v:groupContext="shape" v:layerMember="0">
				<title>Hoja.15</title>
				<path d="M1.5 155.71 C1.5 155.45 1.71 155.23 1.98 155.23 L11.99 155.23 L18.36 155.24 L18.36 154.4 L0.7 154.4 L0.7
							 134.4 L0.04 134.4 L0.04 134.41 L0 134.41 L0 156.39 C0 156.74 0.23 157.03 0.63 157.03 L17.74 157.03 L17.74
							 156.2 L1.98 156.2 C1.71 156.2 1.5 155.98 1.5 155.71 ZM5.03 148.13 L15.04 148.13 L21.41 148.13 L21.41
							 127.29 L3.1 127.29 L3.1 127.3 L3.05 127.3 L3.06 149.28 C3.06 149.63 3.29 149.93 3.69 149.93 L20.79 149.93
							 L20.79 149.09 L5.03 149.09 C4.77 149.09 4.55 148.88 4.55 148.61 C4.55 148.34 4.77 148.13 5.03 148.13
							 Z" class="st3"/>
			</g>
			<g id="shape16-23" v:mID="16" v:groupContext="shape" v:layerMember="0" transform="translate(7.83248,-21.0534)">
				<title>Hoja.16</title>
				<v:userDefs>
					<v:ud v:nameU="SurroundingRegionColor" v:prompt="" v:val="VT0(1):26"/>
				</v:userDefs>
				<path d="M-0 153.84 L10.35 153.84 L10.35 153.01 L-0 153.01 L-0 153.84 ZM-0 157.03 L6.32 157.03 L6.32 156.2 L-0 156.2
							 L-0 157.03 Z" class="st4"/>
			</g>
		</g>
		<g id="shape17-26" v:mID="17" v:groupContext="shape" transform="translate(-5.03,-80.6834) rotate(-30)">
			<title>Círculo</title>
			<v:userDefs>
				<v:ud v:nameU="visVersion" v:val="VT0(15):26"/>
			</v:userDefs>
			<path d="M0 144.56 A12.4693 12.4693 0 0 1 24.94 144.56 A12.4693 12.4693 0 1 1 0 144.56 Z" class="st3"/>
		</g>
	</g>
</svg>
